<svg xmlns="http://www.w3.org/2000/svg" viewBox="0 0 1600 1000" width="1600" height="1000"><rect x="0" y="0" width="1600" height="1000" rx="0" fill="#ffffff"/><rect x="0" y="0" width="1600" height="110" rx="0" fill="#fff"/><text x="120" y="74" font-size="38" font-weight="800" fill="#0a0a0a" text-anchor="start" font-family="Helvetica, Arial, sans-serif" letter-spacing="-1.14">The Fabulous Getaw</text><rect x="0" y="110" width="1600" height="560" rx="0" fill="#f2b8c6"/><text x="120" y="400" font-size="130" font-weight="800" fill="#0a0a0a" text-anchor="start" font-family="Helvetica, Arial, sans-serif" letter-spacing="-3.9">The</text><rect x="120" y="450" width="560" height="10" rx="5" fill="rgba(10,10,10,0.18)"/><rect x="120" y="484" width="560" height="10" rx="5" fill="rgba(10,10,10,0.18)"/><rect x="120" y="518" width="336" height="10" rx="5" fill="rgba(10,10,10,0.18)"/><rect x="120" y="560" width="230" height="70" rx="35" fill="#0a0a0a"/><rect x="960" y="190" width="520" height="400" rx="28" fill="#fff" stroke="#0a0a0a" stroke-width="4"/><rect x="120" y="720" width="420" height="200" rx="22" fill="rgba(242,184,198,0.45)" stroke="#0a0a0a" stroke-width="3"/><rect x="580" y="720" width="420" height="200" rx="22" fill="rgba(242,184,198,0.6)" stroke="#0a0a0a" stroke-width="3"/><rect x="1040" y="720" width="420" height="200" rx="22" fill="rgba(242,184,198,0.75)" stroke="#0a0a0a" stroke-width="3"/><text x="1576" y="978" font-size="22" font-weight="700" fill="#0a0a0a" text-anchor="end" font-family="Helvetica, Arial, sans-serif" letter-spacing="-0.6599999999999999">SAMPLE</text></svg>
