<svg xmlns="http://www.w3.org/2000/svg" viewBox="0 0 1200 900" width="1200" height="900"><rect x="0" y="0" width="1200" height="900" rx="0" fill="rgba(246,199,166,0.55)"/><rect transform="rotate(-6 520 350)" x="240" y="190" width="560" height="320" rx="14" fill="#fff" stroke="#0a0a0a" stroke-width="4"/><g transform="rotate(-6 520 350)"><circle cx="340" cy="350" r="70" fill="#f6c7a6" stroke="#0a0a0a" stroke-width="4.9"/><path d="M 308.5 367.5 L 340 315 L 371.5 367.5 Z" fill="#0a0a0a"/><text x="430" y="340" font-size="44" font-weight="800" fill="#0a0a0a" text-anchor="start" font-family="Helvetica, Arial, sans-serif" letter-spacing="-1.3199999999999998">Hummingbirds</text><rect x="430" y="372" width="260" height="10" rx="5" fill="rgba(10,10,10,0.18)"/><rect x="430" y="396" width="156" height="10" rx="5" fill="rgba(10,10,10,0.18)"/></g><g transform="rotate(5 760 560)"><rect x="420" y="440" width="560" height="320" rx="14" fill="#0a0a0a" stroke="#0a0a0a" stroke-width="4"/><circle cx="560" cy="600" r="70" fill="#f6c7a6" stroke="#fff" stroke-width="4.9"/><path d="M 528.5 617.5 L 560 565 L 591.5 617.5 Z" fill="#fff"/><text x="650" y="610" font-size="44" font-weight="800" fill="#fff" text-anchor="start" font-family="Helvetica, Arial, sans-serif" letter-spacing="-1.3199999999999998">Hummingbirds</text></g><text x="1176" y="878" font-size="22" font-weight="700" fill="#0a0a0a" text-anchor="end" font-family="Helvetica, Arial, sans-serif" letter-spacing="-0.6599999999999999">SAMPLE</text></svg>
